<?xml version="1.0" encoding="UTF-8"?>
<!DOCTYPE svg PUBLIC "-//W3C//DTD SVG 1.1//EN" "http://www.w3.org/Graphics/SVG/1.1/DTD/svg11.dtd">
<!-- Creator: CorelDRAW -->
<svg xmlns="http://www.w3.org/2000/svg" xml:space="preserve" width="96.6359mm" height="76.5554mm" version="1.1" style="shape-rendering:geometricPrecision; text-rendering:geometricPrecision; image-rendering:optimizeQuality; fill-rule:evenodd; clip-rule:evenodd"
viewBox="0 0 2336.34 1850.86"
 xmlns:xlink="http://www.w3.org/1999/xlink"
 xmlns:xodm="http://www.corel.com/coreldraw/odm/2003">
 <defs>
  <style type="text/css">
   <![CDATA[
    .fil0 {fill:white}
   ]]>
  </style>
 </defs>
 <g id="Camada_x0020_1">
  <metadata id="CorelCorpID_0Corel-Layer"/>
  <path class="fil0" d="M1932.37 1239.17c0,-436.72 -1095.02,-165.91 -943.48,-706.25 -66.23,95.92 -74.95,232.24 18.41,342.2 161.51,202.92 803.51,126.94 782.88,365 -18.01,147.22 -209.54,148.8 -315,140.93 -106.52,-7.95 -253.4,-30.52 -320.98,-191.5l-148.43 35.44c64.95,197.12 228.47,268.91 495.1,280.1 267.72,2.19 415.46,-82.64 431.5,-265.92z"/>
  <path class="fil0" d="M1244.3 742.79c169.02,87.39 806.54,59.79 813.28,464.13l274.36 -731.49c12.55,-31.44 -1.87,-43.92 -43.01,-44.65l-889.01 0c-269.26,0 -344.41,225.21 -155.63,312.02z"/>
  <circle class="fil0" cx="1141.16" cy="1712.35" r="138.5"/>
  <circle class="fil0" cx="1727.23" cy="1712.35" r="138.5"/>
  <path class="fil0" d="M778.15 1325.27c80.96,167.54 200.14,168.23 380.41,167.53 -77.59,-17.22 -154.5,-66.35 -208.92,-136.07 -105.7,-149.57 -313.52,-821.51 -502.31,-1209.67 -74.59,-126.34 -237.43,-155.1 -392.07,-145.31 -74.83,20.23 -73.08,117.07 1.7,136.81 128.55,-11.73 229.49,9.58 271.26,70.7 151.28,337.79 299.22,744.58 449.93,1116.01z"/>
 </g>
</svg>
